<?xml version="1.0" standalone="no"?>
<!DOCTYPE svg PUBLIC "-//W3C//DTD SVG 20010904//EN"
 "http://www.w3.org/TR/2001/REC-SVG-20010904/DTD/svg10.dtd">
<svg version="1.0" xmlns="http://www.w3.org/2000/svg"
 width="200.000000pt" height="200.000000pt" viewBox="0 0 200.000000 200.000000"
 preserveAspectRatio="xMidYMid meet">

<g transform="translate(0.000000,200.000000) scale(0.100000,-0.100000)"
fill="#000000" stroke="none">
<path d="M1175 1663 c-60 -36 -227 -133 -370 -215 -143 -82 -268 -157 -278
-167 -16 -16 -15 -51 2 -51 4 0 175 97 380 215 206 118 375 215 377 215 2 0 4
-6 4 -14 0 -8 5 -18 10 -21 6 -4 10 15 10 49 0 39 -4 56 -12 55 -7 -1 -62 -30
-123 -66z"/>
<path d="M1395 1571 c-44 -27 -222 -130 -395 -230 -282 -163 -320 -183 -361
-183 -25 0 -61 8 -80 17 -38 20 -79 60 -79 78 0 8 -3 8 -11 0 -15 -15 -7 -837
9 -875 31 -75 162 -110 253 -68 l49 23 0 363 c0 200 4 373 9 386 6 17 107 79
360 223 l350 200 1 58 c0 39 -4 57 -12 56 -7 0 -49 -22 -93 -48z"/>
<path d="M1475 1459 c-77 -45 -250 -144 -385 -222 -232 -133 -259 -151 -260
-170 0 -28 67 5 394 194 347 200 368 210 381 193 13 -17 14 -14 15 34 0 28 -1
52 -3 52 -1 0 -65 -36 -142 -81z"/>
<path d="M1590 1309 c-113 -66 -292 -169 -397 -231 l-193 -111 0 -423 c0 -284
3 -425 10 -429 6 -4 102 46 213 111 111 64 289 167 394 228 l193 111 0 433 c0
237 -3 431 -7 431 -5 -1 -100 -55 -213 -120z"/>
</g>
</svg>
